<?xml version="1.0" encoding="utf-8"?>
<!-- Generator: Adobe Illustrator 19.0.0, SVG Export Plug-In . SVG Version: 6.00 Build 0)  -->
<svg version="1.1" id="Layer_1" xmlns="http://www.w3.org/2000/svg" xmlns:xlink="http://www.w3.org/1999/xlink" x="0px" y="0px"
	 viewBox="0 0 744.9 127.2" style="enable-background:new 0 0 744.9 127.2;" xml:space="preserve">
<style type="text/css">
	.st0{display:none;fill:#FFFFFF;}
	.st1{display:none;fill:#1C9AD6;}
	.st2{display:none;fill:#FCAF17;}
	.st3{display:none;fill:#F9ED1A;}
	.st4{display:none;}
	.st5{font-family:'MyriadPro-Regular';}
	.st6{font-size:12px;}
	.st7{display:none;fill:#1798D5;}
	.st8{fill:#FFFFFF;}
	.st9{fill:#FCEE21;}
	.st10{fill:#F9B118;}
	.st11{fill:#FDC232;}
	.st12{fill:#FEE600;}
	.st13{font-size:10.6505px;}
</style>
<rect x="289.2" y="25" class="st0" width="186" height="111"/>
<rect x="295" y="117.8" class="st1" width="15.4" height="15.4"/>
<rect x="351.5" y="117.8" class="st2" width="15.4" height="15.4"/>
<rect x="418" y="117.8" class="st3" width="15.4" height="15.4"/>
<text transform="matrix(1 0 0 1 312.6513 129.0507)" class="st4 st5 st6">Cyan</text>
<text transform="matrix(1 0 0 1 369.6513 129.0507)" class="st4 st5 st6">Orange</text>
<text transform="matrix(1 0 0 1 436.1513 129.0507)" class="st4 st5 st6">Yellow</text>
<rect x="291.9" y="28" class="st7" width="180.5" height="67"/>
<g>
	<path class="st8" d="M33.6,110c-6.2,0-12.2-1-18.2-2.9c-6-1.9-11.1-4.7-15.4-8.3l5.6-8.7c4.5,3.4,9,6,13.5,7.7
		c4.5,1.7,9.2,2.6,14.2,2.6c5.6,0,10-1.1,13.3-3.3c3.3-2.2,4.9-5.3,4.9-9.3c0-1.9-0.4-3.4-1.3-4.8c-0.9-1.3-2.2-2.5-4-3.5
		c-1.8-1-4-1.9-6.7-2.6c-2.7-0.8-5.9-1.6-9.5-2.5c-4.6-1.2-8.6-2.3-11.9-3.4c-3.3-1.1-6.1-2.3-8.2-3.8c-2.2-1.5-3.7-3.2-4.7-5.3
		c-1-2-1.5-4.6-1.5-7.6c0-3.8,0.8-7.2,2.3-10.2c1.5-3,3.6-5.5,6.2-7.5c2.6-2,5.7-3.5,9.3-4.5c3.6-1,7.4-1.5,11.5-1.5
		c5.8,0,11.1,0.9,16.1,2.8c5,1.9,9.2,4.3,12.6,7.3l-5.9,7.8c-3.2-2.8-6.8-5-10.9-6.4c-4-1.4-8.1-2.1-12.3-2.1c-4.7,0-8.7,1-12,3
		c-3.3,2-4.9,5.2-4.9,9.6c0,1.8,0.3,3.2,1,4.4c0.6,1.2,1.7,2.2,3.2,3.1c1.5,0.9,3.3,1.7,5.6,2.3c2.3,0.7,5.1,1.4,8.3,2.2
		c5.1,1.2,9.5,2.4,13.3,3.6c3.8,1.2,6.9,2.7,9.4,4.3c2.5,1.7,4.3,3.6,5.6,5.9c1.2,2.3,1.8,5,1.8,8.2c0,7.1-2.7,12.8-8.2,17
		C50.3,107.9,42.9,110,33.6,110z"/>
	<path class="st8" d="M98.9,110c-3.6,0-7-0.6-10.1-1.8c-3.1-1.2-5.8-2.9-8.1-5.1c-2.3-2.1-4.1-4.7-5.4-7.5c-1.3-2.9-2-6-2-9.5
		c0-3.5,0.8-6.7,2.3-9.6c1.6-2.9,3.8-5.4,6.7-7.4c2.9-2.1,6.3-3.7,10.3-4.8c4-1.2,8.3-1.8,13-1.8c3.7,0,7.5,0.3,11.3,1
		c3.8,0.7,7.2,1.6,10.1,2.8v-6.2c0-6.3-1.8-11.2-5.3-14.7c-3.5-3.6-8.5-5.4-15-5.4c-7.7,0-15.8,3-24.3,8.9L78,40.6
		c9.9-6.6,19.8-10,29.8-10c10.1,0,17.9,2.7,23.5,8.1c5.6,5.4,8.4,13,8.4,22.7v31.2c0,3,1.4,4.6,4.1,4.7v11.1
		c-1.4,0.2-2.5,0.3-3.4,0.4c-0.9,0.1-1.8,0.1-2.8,0.1c-2.5,0-4.6-0.8-6.1-2.3c-1.5-1.5-2.4-3.4-2.7-5.5l-0.3-5.4
		c-3.4,4.6-7.8,8.1-13,10.5C110.4,108.8,104.8,110,98.9,110z M102.2,100.3c4.6,0,8.9-0.9,12.8-2.6c4-1.7,7-4,9-6.8
		c1.9-1.9,2.8-3.8,2.8-5.7V73.9c-6.3-2.4-12.8-3.7-19.5-3.7c-6.5,0-11.7,1.4-15.8,4.1c-4.1,2.7-6.1,6.3-6.1,10.7
		c0,2.2,0.4,4.2,1.2,6c0.8,1.9,2,3.5,3.5,4.8c1.5,1.4,3.3,2.4,5.4,3.2C97.7,99.9,99.9,100.3,102.2,100.3z"/>
	<path class="st8" d="M164,108.5V42.1h-10.4V32H164v-1.6c0-9.5,2.1-16.9,6.3-22.3c4.2-5.4,9.9-8.1,17.2-8.1c3,0,6,0.4,8.9,1.2
		c2.9,0.8,5.6,2,7.9,3.4l-3.2,9.5c-1.4-1-3.1-1.8-5.1-2.3c-2-0.6-4-0.9-5.9-0.9c-4.3,0-7.6,1.6-9.8,4.8c-2.2,3.2-3.4,7.9-3.4,14.1
		V32h20.4v10.1h-20.4v66.4H164z"/>
	<path class="st8" d="M242.3,110c-5.8,0-11-1-15.8-3.1c-4.8-2.1-8.9-5-12.3-8.6c-3.4-3.6-6.1-7.8-8-12.7c-1.9-4.8-2.9-10-2.9-15.3
		c0-5.4,1-10.5,2.9-15.3c1.9-4.8,4.6-9,8.1-12.6c3.5-3.6,7.6-6.5,12.4-8.6c4.8-2.1,10.1-3.2,15.8-3.2c5.8,0,11,1.1,15.8,3.2
		c4.7,2.2,8.8,5,12.1,8.6c3.3,3.6,5.9,7.7,7.7,12.5c1.8,4.7,2.7,9.7,2.7,14.7c0,1.1,0,2.1-0.1,2.9c0,0.9-0.1,1.6-0.2,2.1h-63.5
		c0.3,3.8,1.2,7.3,2.6,10.4c1.5,3.1,3.4,5.8,5.7,8.1c2.3,2.3,5,4,8,5.3c3,1.3,6.1,1.9,9.5,1.9c2.3,0,4.6-0.3,6.9-1
		c2.2-0.6,4.4-1.5,6.3-2.6c2-1.1,3.7-2.4,5.2-4c1.5-1.6,2.7-3.3,3.4-5.3l11.1,3.1c-1.3,2.8-3,5.4-5.2,7.8c-2.2,2.3-4.7,4.4-7.6,6.1
		c-2.9,1.7-6.1,3.1-9.6,4C249.8,109.5,246.1,110,242.3,110z M268.5,65.1c-0.3-3.6-1.2-7-2.7-10c-1.5-3.1-3.4-5.7-5.7-7.8
		c-2.3-2.2-5-3.8-8-5.1c-3-1.2-6.3-1.8-9.7-1.8c-3.4,0-6.6,0.6-9.7,1.8c-3,1.2-5.7,2.9-8,5.1c-2.3,2.2-4.2,4.8-5.6,7.8
		c-1.4,3-2.3,6.4-2.6,10H268.5z"/>
	<path class="st8" d="M438.4,70.1c0-5.4,0.9-10.5,2.8-15.3c1.9-4.8,4.5-9,7.9-12.5c3.4-3.6,7.5-6.4,12.2-8.5
		c4.7-2.1,10-3.2,15.9-3.2c7.6,0,14.2,1.7,19.7,5.1c5.5,3.4,9.7,7.9,12.5,13.6l-12.6,4c-2-3.6-4.7-6.4-8.2-8.4c-3.5-2-7.4-3-11.7-3
		c-3.5,0-6.8,0.7-10,2.1c-3.1,1.4-5.8,3.4-8.1,5.9c-2.2,2.5-4,5.5-5.4,8.9c-1.3,3.4-2,7.2-2,11.3c0,4,0.7,7.8,2.1,11.3
		c1.4,3.5,3.2,6.6,5.5,9.2c2.3,2.6,5,4.6,8.1,6.1c3.1,1.5,6.4,2.2,9.9,2.2c2.2,0,4.5-0.3,6.7-1c2.2-0.6,4.2-1.5,6-2.6
		c1.8-1.1,3.4-2.3,4.8-3.7c1.4-1.4,2.3-3,2.9-4.6l12.6,3.8c-1.2,2.8-2.8,5.4-4.9,7.8c-2.1,2.3-4.6,4.3-7.4,6c-2.8,1.7-6,3-9.5,4
		c-3.5,1-7.1,1.5-10.9,1.5c-5.8,0-11.1-1.1-15.8-3.2c-4.8-2.2-8.9-5-12.3-8.7c-3.4-3.6-6.1-7.8-8-12.7
		C439.3,80.6,438.4,75.5,438.4,70.1z"/>
	<path class="st8" d="M544.4,110c-3.6,0-7-0.6-10.1-1.8c-3.1-1.2-5.9-2.9-8.1-5.1c-2.3-2.1-4.1-4.7-5.4-7.5c-1.3-2.9-2-6-2-9.5
		c0-3.5,0.8-6.7,2.3-9.6c1.6-2.9,3.8-5.4,6.7-7.4c2.9-2.1,6.3-3.7,10.3-4.8c4-1.2,8.3-1.8,13-1.8c3.7,0,7.5,0.3,11.3,1
		c3.8,0.7,7.2,1.6,10.1,2.8v-6.2c0-6.3-1.8-11.2-5.3-14.7c-3.5-3.6-8.5-5.4-15-5.4c-7.7,0-15.8,3-24.3,8.9l-4.3-8.4
		c9.9-6.6,19.8-10,29.8-10c10.1,0,17.9,2.7,23.5,8.1c5.6,5.4,8.4,13,8.4,22.7v31.2c0,3,1.4,4.6,4.1,4.7v11.1
		c-1.4,0.2-2.5,0.3-3.4,0.4c-0.9,0.1-1.8,0.1-2.8,0.1c-2.5,0-4.6-0.8-6.1-2.3c-1.5-1.5-2.4-3.4-2.7-5.5l-0.3-5.4
		c-3.4,4.6-7.8,8.1-13,10.5C556,108.8,550.4,110,544.4,110z M547.8,100.3c4.6,0,8.9-0.9,12.8-2.6c4-1.7,7-4,9-6.8
		c1.9-1.9,2.8-3.8,2.8-5.7V73.9c-6.3-2.4-12.8-3.7-19.5-3.7c-6.5,0-11.7,1.4-15.8,4.1c-4.1,2.7-6.1,6.3-6.1,10.7
		c0,2.2,0.4,4.2,1.2,6c0.8,1.9,2,3.5,3.5,4.8c1.5,1.4,3.3,2.4,5.4,3.2C543.2,99.9,545.4,100.3,547.8,100.3z"/>
	<path class="st8" d="M632.8,110c-6.2,0-12.2-1-18.2-2.9c-6-1.9-11.1-4.7-15.4-8.3l5.6-8.7c4.5,3.4,9,6,13.5,7.7
		c4.5,1.7,9.2,2.6,14.2,2.6c5.6,0,10-1.1,13.3-3.3c3.3-2.2,4.9-5.3,4.9-9.3c0-1.9-0.4-3.4-1.3-4.8c-0.9-1.3-2.2-2.5-4-3.5
		c-1.8-1-4-1.9-6.8-2.6c-2.7-0.8-5.9-1.6-9.5-2.5c-4.6-1.2-8.6-2.3-11.9-3.4c-3.3-1.1-6.1-2.3-8.2-3.8c-2.2-1.5-3.7-3.2-4.7-5.3
		c-1-2-1.5-4.6-1.5-7.6c0-3.8,0.8-7.2,2.3-10.2c1.5-3,3.6-5.5,6.2-7.5c2.6-2,5.7-3.5,9.3-4.5c3.6-1,7.4-1.5,11.5-1.5
		c5.8,0,11.1,0.9,16.1,2.8c5,1.9,9.2,4.3,12.6,7.3l-5.9,7.8c-3.2-2.8-6.8-5-10.9-6.4c-4-1.4-8.1-2.1-12.3-2.1c-4.7,0-8.7,1-12,3
		c-3.3,2-4.9,5.2-4.9,9.6c0,1.8,0.3,3.2,1,4.4c0.6,1.2,1.7,2.2,3.1,3.1c1.5,0.9,3.3,1.7,5.7,2.3c2.3,0.7,5.1,1.4,8.3,2.2
		c5.1,1.2,9.5,2.4,13.3,3.6c3.8,1.2,6.9,2.7,9.4,4.3c2.5,1.7,4.3,3.6,5.6,5.9c1.2,2.3,1.8,5,1.8,8.2c0,7.1-2.7,12.8-8.2,17
		C649.5,107.9,642.1,110,632.8,110z"/>
	<path class="st8" d="M744.9,108.5H732V65.7c0-7.9-1.4-13.8-4.1-17.7c-2.7-3.9-6.8-5.8-12-5.8c-2.5,0-5.1,0.5-7.6,1.5
		c-2.5,1-4.9,2.4-7.1,4.2c-2.2,1.8-4.2,3.9-5.9,6.3c-1.7,2.4-3,5.1-3.9,8.1v46.2h-12.9V1.5h12.9v46.9c3-5.6,7.1-9.9,12.3-13.1
		c5.2-3.1,10.9-4.7,17-4.7c4.5,0,8.3,0.8,11.4,2.5c3.1,1.7,5.6,3.9,7.5,6.7c1.8,2.8,3.2,6.2,4,10.2c0.8,4,1.3,8.2,1.3,12.7V108.5z"
		/>
</g>
<g>
	<path class="st9" d="M359.5,13.3c-31.5,0-57,25.5-57,57c0,31.5,25.5,57,57,57c31.5,0,57-25.5,57-57C416.5,38.8,391,13.3,359.5,13.3
		z M359.5,119.8c-27.4,0-49.6-22.2-49.6-49.6c0-27.4,22.2-49.6,49.6-49.6c27.4,0,49.6,22.2,49.6,49.6
		C409.1,97.6,386.9,119.8,359.5,119.8z"/>
	<path class="st10" d="M359.5,20.6c-27.4,0-49.6,22.2-49.6,49.6c0,27.4,22.2,49.6,49.6,49.6c27.4,0,49.6-22.2,49.6-49.6
		C409.1,42.8,386.9,20.6,359.5,20.6z M379,90.6h-39.7V50.9H379V90.6z"/>
	<g>
		<rect x="340.3" y="51.3" class="st11" width="2.8" height="2.7"/>
		<rect x="340.3" y="86.9" class="st11" width="2.8" height="2.7"/>
		<rect x="376.1" y="86.9" class="st11" width="2.8" height="2.7"/>
		<rect x="376.1" y="51.5" class="st11" width="2.8" height="2.7"/>
	</g>
	<path class="st10" d="M339.3,90.6H379V50.9h-39.7V90.6z M341.4,52.1h36.2v36.2h-36.2V52.1z"/>
	<g>
		<g>
			<path class="st12" d="M377.6,53.8c0-0.9-0.7-1.6-1.6-1.6h-32.9c-0.9,0-1.6,0.7-1.6,1.6v32.9c0,0.9,0.7,1.6,1.6,1.6H376
				c0.9,0,1.6-0.7,1.6-1.6V53.8z M375.4,84.4c0,0.9-0.7,1.6-1.6,1.6h-28.3c-0.9,0-1.6-0.7-1.6-1.6V56c0-0.9,0.7-1.6,1.6-1.6h28.3
				c0.9,0,1.6,0.7,1.6,1.6V84.4z"/>
		</g>
	</g>
</g>
<text transform="matrix(1 0 0 1 300.2187 109.6235)" class="st4 st5 st13">FlashCoin.io logo</text>
</svg>
